# xmcd CD database file
# Copyright (C) 1997 Ti Kan
# 
# Track frame offsets:
#     187
#     13702
#     26167
#     37772
#     51887
#     64155
#     75202
#     88712
#     100230
#     111372
#     123062
#     138080
# 
# Disc length: 1986 seconds
# 
# Revision: 1
# Processed by: cddbd v1.4b41PL1 Copyright (c) Steve Scherf et al.
# Submitted via: DiscPlay 4.0.3
# 
DISCID=8c07c00c
DTITLE=Glen Campbell - Glen Campbell Best Of The Early Years
DYEAR=1900
DGENRE=
TTITLE0=Gentle On MY Mind
TTITLE1=By The Time I Get To Phoenix
TTITLE2=Hey Little One
TTITLE3=Wichita Lineman
TTITLE4=Galveston
TTITLE5=Try a Little Kindness
TTITLE6=Honey Come Back
TTITLE7=Everything a Man Could Ever Need
TTITLE8=It's Only Make Believe
TTITLE9=Dream Baby
TTITLE10=Your Cheatin' Heart
TTITLE11=I'm So Lonesome I Could Cry
EXTD=
EXTT0=
EXTT1=
EXTT2=
EXTT3=
EXTT4=
EXTT5=
EXTT6=
EXTT7=
EXTT8=
EXTT9=
EXTT10=
EXTT11=
PLAYORDER=
